# Tiled2Unity generated file. Do not modify by hand.
# Wavefront file for 'Puzzle3_mesh_0073.obj'

# Vertices (Count = 276)
v -65 -5 0
v -66 -5 0
v -66 -4 0
v -65 -4 0
v -23 -6 0
v -24 -6 0
v -24 -5 0
v -23 -5 0
v -24 -6 0
v -25 -6 0
v -25 -5 0
v -24 -5 0
v -25 -6 0
v -26 -6 0
v -26 -5 0
v -25 -5 0
v -28 -6 0
v -29 -6 0
v -29 -5 0
v -28 -5 0
v -30 -6 0
v -31 -6 0
v -31 -5 0
v -30 -5 0
v -31 -6 0
v -32 -6 0
v -32 -5 0
v -31 -5 0
v -34 -6 0
v -35 -6 0
v -35 -5 0
v -34 -5 0
v -36 -6 0
v -37 -6 0
v -37 -5 0
v -36 -5 0
v -37 -6 0
v -38 -6 0
v -38 -5 0
v -37 -5 0
v -38 -6 0
v -39 -6 0
v -39 -5 0
v -38 -5 0
v -39 -6 0
v -40 -6 0
v -40 -5 0
v -39 -5 0
v -40 -6 0
v -41 -6 0
v -41 -5 0
v -40 -5 0
v -1 -10 0
v -2 -10 0
v -2 -9 0
v -1 -9 0
v -2 -10 0
v -3 -10 0
v -3 -9 0
v -2 -9 0
v -48 -10 0
v -49 -10 0
v -49 -9 0
v -48 -9 0
v -49 -10 0
v -50 -10 0
v -50 -9 0
v -49 -9 0
v -35 -12 0
v -36 -12 0
v -36 -11 0
v -35 -11 0
v -37 -12 0
v -38 -12 0
v -38 -11 0
v -37 -11 0
v -39 -12 0
v -40 -12 0
v -40 -11 0
v -39 -11 0
v -41 -12 0
v -42 -12 0
v -42 -11 0
v -41 -11 0
v -44 -14 0
v -45 -14 0
v -45 -13 0
v -44 -13 0
v -45 -14 0
v -46 -14 0
v -46 -13 0
v -45 -13 0
v -20 -15 0
v -21 -15 0
v -21 -14 0
v -20 -14 0
v -7 -18 0
v -8 -18 0
v -8 -17 0
v -7 -17 0
v -4 -24 0
v -5 -24 0
v -5 -23 0
v -4 -23 0
v -5 -24 0
v -6 -24 0
v -6 -23 0
v -5 -23 0
v -17 -26 0
v -18 -26 0
v -18 -25 0
v -17 -25 0
v -18 -26 0
v -19 -26 0
v -19 -25 0
v -18 -25 0
v -35 -26 0
v -36 -26 0
v -36 -25 0
v -35 -25 0
v -37 -26 0
v -38 -26 0
v -38 -25 0
v -37 -25 0
v -38 -26 0
v -39 -26 0
v -39 -25 0
v -38 -25 0
v -39 -26 0
v -40 -26 0
v -40 -25 0
v -39 -25 0
v -40 -26 0
v -41 -26 0
v -41 -25 0
v -40 -25 0
v -10 -27 0
v -11 -27 0
v -11 -26 0
v -10 -26 0
v -12 -27 0
v -13 -27 0
v -13 -26 0
v -12 -26 0
v -37 -30 0
v -38 -30 0
v -38 -29 0
v -37 -29 0
v -39 -30 0
v -40 -30 0
v -40 -29 0
v -39 -29 0
v -40 -30 0
v -41 -30 0
v -41 -29 0
v -40 -29 0
v -42 -30 0
v -43 -30 0
v -43 -29 0
v -42 -29 0
v -44 -30 0
v -45 -30 0
v -45 -29 0
v -44 -29 0
v -30 -32 0
v -31 -32 0
v -31 -31 0
v -30 -31 0
v -31 -32 0
v -32 -32 0
v -32 -31 0
v -31 -31 0
v -18 -33 0
v -19 -33 0
v -19 -32 0
v -18 -32 0
v -19 -33 0
v -20 -33 0
v -20 -32 0
v -19 -32 0
v -20 -33 0
v -21 -33 0
v -21 -32 0
v -20 -32 0
v -10 -34 0
v -11 -34 0
v -11 -33 0
v -10 -33 0
v -11 -34 0
v -12 -34 0
v -12 -33 0
v -11 -33 0
v -7 -35 0
v -8 -35 0
v -8 -34 0
v -7 -34 0
v -23 -36 0
v -24 -36 0
v -24 -35 0
v -23 -35 0
v -24 -36 0
v -25 -36 0
v -25 -35 0
v -24 -35 0
v -25 -36 0
v -26 -36 0
v -26 -35 0
v -25 -35 0
v -26 -36 0
v -27 -36 0
v -27 -35 0
v -26 -35 0
v -34 -36 0
v -35 -36 0
v -35 -35 0
v -34 -35 0
v -35 -36 0
v -36 -36 0
v -36 -35 0
v -35 -35 0
v -36 -36 0
v -37 -36 0
v -37 -35 0
v -36 -35 0
v -37 -36 0
v -38 -36 0
v -38 -35 0
v -37 -35 0
v -39 -36 0
v -40 -36 0
v -40 -35 0
v -39 -35 0
v -40 -36 0
v -41 -36 0
v -41 -35 0
v -40 -35 0
v -46 -36 0
v -47 -36 0
v -47 -35 0
v -46 -35 0
v -47 -36 0
v -48 -36 0
v -48 -35 0
v -47 -35 0
v -50 -36 0
v -51 -36 0
v -51 -35 0
v -50 -35 0
v -51 -36 0
v -52 -36 0
v -52 -35 0
v -51 -35 0
v -52 -36 0
v -53 -36 0
v -53 -35 0
v -52 -35 0
v -55 -36 0
v -56 -36 0
v -56 -35 0
v -55 -35 0
v -57 -36 0
v -58 -36 0
v -58 -35 0
v -57 -35 0
v -58 -36 0
v -59 -36 0
v -59 -35 0
v -58 -35 0
v -60 -36 0
v -61 -36 0
v -61 -35 0
v -60 -35 0
v -63 -36 0
v -64 -36 0
v -64 -35 0
v -63 -35 0

# Texture cooridinates (Count = 6)
vt 0.3333333 0
vt 0.6666667 0
vt 0.6666667 1
vt 0.3333333 1
vt 0 0
vt 0 1

# Normal
vn 0 0 -1

# Mesh description
g Puzzle3_mesh_0073

# Faces
f 1/1/1 2/2/1 3/3/1 4/4/1
f 5/1/1 6/2/1 7/3/1 8/4/1
f 9/1/1 10/2/1 11/3/1 12/4/1
f 13/1/1 14/2/1 15/3/1 16/4/1
f 17/1/1 18/2/1 19/3/1 20/4/1
f 21/5/1 22/1/1 23/4/1 24/6/1
f 25/1/1 26/2/1 27/3/1 28/4/1
f 29/5/1 30/1/1 31/4/1 32/6/1
f 33/5/1 34/1/1 35/4/1 36/6/1
f 37/1/1 38/2/1 39/3/1 40/4/1
f 41/5/1 42/1/1 43/4/1 44/6/1
f 45/5/1 46/1/1 47/4/1 48/6/1
f 49/1/1 50/2/1 51/3/1 52/4/1
f 53/5/1 54/1/1 55/4/1 56/6/1
f 57/5/1 58/1/1 59/4/1 60/6/1
f 61/5/1 62/1/1 63/4/1 64/6/1
f 65/5/1 66/1/1 67/4/1 68/6/1
f 69/1/1 70/2/1 71/3/1 72/4/1
f 73/5/1 74/1/1 75/4/1 76/6/1
f 77/1/1 78/2/1 79/3/1 80/4/1
f 81/1/1 82/2/1 83/3/1 84/4/1
f 85/1/1 86/2/1 87/3/1 88/4/1
f 89/5/1 90/1/1 91/4/1 92/6/1
f 93/5/1 94/1/1 95/4/1 96/6/1
f 97/1/1 98/2/1 99/3/1 100/4/1
f 101/1/1 102/2/1 103/3/1 104/4/1
f 105/5/1 106/1/1 107/4/1 108/6/1
f 109/5/1 110/1/1 111/4/1 112/6/1
f 113/5/1 114/1/1 115/4/1 116/6/1
f 117/1/1 118/2/1 119/3/1 120/4/1
f 121/5/1 122/1/1 123/4/1 124/6/1
f 125/1/1 126/2/1 127/3/1 128/4/1
f 129/5/1 130/1/1 131/4/1 132/6/1
f 133/1/1 134/2/1 135/3/1 136/4/1
f 137/1/1 138/2/1 139/3/1 140/4/1
f 141/5/1 142/1/1 143/4/1 144/6/1
f 145/5/1 146/1/1 147/4/1 148/6/1
f 149/5/1 150/1/1 151/4/1 152/6/1
f 153/1/1 154/2/1 155/3/1 156/4/1
f 157/5/1 158/1/1 159/4/1 160/6/1
f 161/1/1 162/2/1 163/3/1 164/4/1
f 165/1/1 166/2/1 167/3/1 168/4/1
f 169/5/1 170/1/1 171/4/1 172/6/1
f 173/1/1 174/2/1 175/3/1 176/4/1
f 177/1/1 178/2/1 179/3/1 180/4/1
f 181/1/1 182/2/1 183/3/1 184/4/1
f 185/1/1 186/2/1 187/3/1 188/4/1
f 189/5/1 190/1/1 191/4/1 192/6/1
f 193/1/1 194/2/1 195/3/1 196/4/1
f 197/5/1 198/1/1 199/4/1 200/6/1
f 201/5/1 202/1/1 203/4/1 204/6/1
f 205/5/1 206/1/1 207/4/1 208/6/1
f 209/1/1 210/2/1 211/3/1 212/4/1
f 213/1/1 214/2/1 215/3/1 216/4/1
f 217/1/1 218/2/1 219/3/1 220/4/1
f 221/5/1 222/1/1 223/4/1 224/6/1
f 225/5/1 226/1/1 227/4/1 228/6/1
f 229/5/1 230/1/1 231/4/1 232/6/1
f 233/5/1 234/1/1 235/4/1 236/6/1
f 237/1/1 238/2/1 239/3/1 240/4/1
f 241/1/1 242/2/1 243/3/1 244/4/1
f 245/5/1 246/1/1 247/4/1 248/6/1
f 249/5/1 250/1/1 251/4/1 252/6/1
f 253/1/1 254/2/1 255/3/1 256/4/1
f 257/1/1 258/2/1 259/3/1 260/4/1
f 261/5/1 262/1/1 263/4/1 264/6/1
f 265/5/1 266/1/1 267/4/1 268/6/1
f 269/5/1 270/1/1 271/4/1 272/6/1
f 273/1/1 274/2/1 275/3/1 276/4/1

