# Tiled2Unity generated file. Do not modify by hand.
# Wavefront file for 'OpenLevel1_mesh_0005.obj'

# Vertices (Count = 520)
v -56 -4 0
v -57 -4 0
v -57 -3 0
v -56 -3 0
v -57 -4 0
v -58 -4 0
v -58 -3 0
v -57 -3 0
v -58 -4 0
v -59 -4 0
v -59 -3 0
v -58 -3 0
v -59 -4 0
v -60 -4 0
v -60 -3 0
v -59 -3 0
v -62 -4 0
v -63 -4 0
v -63 -3 0
v -62 -3 0
v -63 -4 0
v -64 -4 0
v -64 -3 0
v -63 -3 0
v -64 -4 0
v -65 -4 0
v -65 -3 0
v -64 -3 0
v -68 -4 0
v -69 -4 0
v -69 -3 0
v -68 -3 0
v -69 -4 0
v -70 -4 0
v -70 -3 0
v -69 -3 0
v -72 -4 0
v -73 -4 0
v -73 -3 0
v -72 -3 0
v -73 -4 0
v -74 -4 0
v -74 -3 0
v -73 -3 0
v -76 -4 0
v -77 -4 0
v -77 -3 0
v -76 -3 0
v -79 -4 0
v -80 -4 0
v -80 -3 0
v -79 -3 0
v -80 -4 0
v -81 -4 0
v -81 -3 0
v -80 -3 0
v -81 -4 0
v -82 -4 0
v -82 -3 0
v -81 -3 0
v -82 -4 0
v -83 -4 0
v -83 -3 0
v -82 -3 0
v -83 -4 0
v -84 -4 0
v -84 -3 0
v -83 -3 0
v -84 -4 0
v -85 -4 0
v -85 -3 0
v -84 -3 0
v -85 -4 0
v -86 -4 0
v -86 -3 0
v -85 -3 0
v -86 -4 0
v -87 -4 0
v -87 -3 0
v -86 -3 0
v -87 -4 0
v -88 -4 0
v -88 -3 0
v -87 -3 0
v -88 -4 0
v -89 -4 0
v -89 -3 0
v -88 -3 0
v -90 -4 0
v -91 -4 0
v -91 -3 0
v -90 -3 0
v -91 -4 0
v -92 -4 0
v -92 -3 0
v -91 -3 0
v -92 -4 0
v -93 -4 0
v -93 -3 0
v -92 -3 0
v -94 -4 0
v -95 -4 0
v -95 -3 0
v -94 -3 0
v -2 -10 0
v -3 -10 0
v -3 -9 0
v -2 -9 0
v -3 -10 0
v -4 -10 0
v -4 -9 0
v -3 -9 0
v -4 -10 0
v -5 -10 0
v -5 -9 0
v -4 -9 0
v -61 -10 0
v -62 -10 0
v -62 -9 0
v -61 -9 0
v -62 -10 0
v -63 -10 0
v -63 -9 0
v -62 -9 0
v -64 -10 0
v -65 -10 0
v -65 -9 0
v -64 -9 0
v -65 -10 0
v -66 -10 0
v -66 -9 0
v -65 -9 0
v -66 -10 0
v -67 -10 0
v -67 -9 0
v -66 -9 0
v -69 -10 0
v -70 -10 0
v -70 -9 0
v -69 -9 0
v -70 -10 0
v -71 -10 0
v -71 -9 0
v -70 -9 0
v -71 -10 0
v -72 -10 0
v -72 -9 0
v -71 -9 0
v -72 -10 0
v -73 -10 0
v -73 -9 0
v -72 -9 0
v -83 -14 0
v -84 -14 0
v -84 -13 0
v -83 -13 0
v -84 -14 0
v -85 -14 0
v -85 -13 0
v -84 -13 0
v -85 -14 0
v -86 -14 0
v -86 -13 0
v -85 -13 0
v -88 -14 0
v -89 -14 0
v -89 -13 0
v -88 -13 0
v -89 -14 0
v -90 -14 0
v -90 -13 0
v -89 -13 0
v -90 -14 0
v -91 -14 0
v -91 -13 0
v -90 -13 0
v -91 -14 0
v -92 -14 0
v -92 -13 0
v -91 -13 0
v -93 -14 0
v -94 -14 0
v -94 -13 0
v -93 -13 0
v -94 -14 0
v -95 -14 0
v -95 -13 0
v -94 -13 0
v -95 -14 0
v -96 -14 0
v -96 -13 0
v -95 -13 0
v -27 -16 0
v -28 -16 0
v -28 -15 0
v -27 -15 0
v -28 -16 0
v -29 -16 0
v -29 -15 0
v -28 -15 0
v -29 -16 0
v -30 -16 0
v -30 -15 0
v -29 -15 0
v -30 -16 0
v -31 -16 0
v -31 -15 0
v -30 -15 0
v -31 -16 0
v -32 -16 0
v -32 -15 0
v -31 -15 0
v -41 -19 0
v -42 -19 0
v -42 -18 0
v -41 -18 0
v -42 -19 0
v -43 -19 0
v -43 -18 0
v -42 -18 0
v -54 -19 0
v -55 -19 0
v -55 -18 0
v -54 -18 0
v -55 -19 0
v -56 -19 0
v -56 -18 0
v -55 -18 0
v -56 -19 0
v -57 -19 0
v -57 -18 0
v -56 -18 0
v -57 -19 0
v -58 -19 0
v -58 -18 0
v -57 -18 0
v -58 -19 0
v -59 -19 0
v -59 -18 0
v -58 -18 0
v -1 -20 0
v -2 -20 0
v -2 -19 0
v -1 -19 0
v -2 -20 0
v -3 -20 0
v -3 -19 0
v -2 -19 0
v -3 -20 0
v -4 -20 0
v -4 -19 0
v -3 -19 0
v -4 -20 0
v -5 -20 0
v -5 -19 0
v -4 -19 0
v -94 -22 0
v -95 -22 0
v -95 -21 0
v -94 -21 0
v -95 -22 0
v -96 -22 0
v -96 -21 0
v -95 -21 0
v -13 -25 0
v -14 -25 0
v -14 -24 0
v -13 -24 0
v -15 -25 0
v -16 -25 0
v -16 -24 0
v -15 -24 0
v -16 -25 0
v -17 -25 0
v -17 -24 0
v -16 -24 0
v -18 -25 0
v -19 -25 0
v -19 -24 0
v -18 -24 0
v -20 -25 0
v -21 -25 0
v -21 -24 0
v -20 -24 0
v -21 -25 0
v -22 -25 0
v -22 -24 0
v -21 -24 0
v -75 -34 0
v -76 -34 0
v -76 -33 0
v -75 -33 0
v -76 -34 0
v -77 -34 0
v -77 -33 0
v -76 -33 0
v -7 -38 0
v -8 -38 0
v -8 -37 0
v -7 -37 0
v -8 -38 0
v -9 -38 0
v -9 -37 0
v -8 -37 0
v -9 -38 0
v -10 -38 0
v -10 -37 0
v -9 -37 0
v -10 -38 0
v -11 -38 0
v -11 -37 0
v -10 -37 0
v -11 -38 0
v -12 -38 0
v -12 -37 0
v -11 -37 0
v -12 -38 0
v -13 -38 0
v -13 -37 0
v -12 -37 0
v -21 -38 0
v -22 -38 0
v -22 -37 0
v -21 -37 0
v -22 -38 0
v -23 -38 0
v -23 -37 0
v -22 -37 0
v -24 -38 0
v -25 -38 0
v -25 -37 0
v -24 -37 0
v -25 -38 0
v -26 -38 0
v -26 -37 0
v -25 -37 0
v -26 -38 0
v -27 -38 0
v -27 -37 0
v -26 -37 0
v -28 -38 0
v -29 -38 0
v -29 -37 0
v -28 -37 0
v -29 -38 0
v -30 -38 0
v -30 -37 0
v -29 -37 0
v -31 -38 0
v -32 -38 0
v -32 -37 0
v -31 -37 0
v -32 -38 0
v -33 -38 0
v -33 -37 0
v -32 -37 0
v -48 -38 0
v -49 -38 0
v -49 -37 0
v -48 -37 0
v -49 -38 0
v -50 -38 0
v -50 -37 0
v -49 -37 0
v -51 -38 0
v -52 -38 0
v -52 -37 0
v -51 -37 0
v -52 -38 0
v -53 -38 0
v -53 -37 0
v -52 -37 0
v -53 -38 0
v -54 -38 0
v -54 -37 0
v -53 -37 0
v -54 -38 0
v -55 -38 0
v -55 -37 0
v -54 -37 0
v -55 -38 0
v -56 -38 0
v -56 -37 0
v -55 -37 0
v -56 -38 0
v -57 -38 0
v -57 -37 0
v -56 -37 0
v -58 -38 0
v -59 -38 0
v -59 -37 0
v -58 -37 0
v -60 -38 0
v -61 -38 0
v -61 -37 0
v -60 -37 0
v -62 -38 0
v -63 -38 0
v -63 -37 0
v -62 -37 0
v -65 -38 0
v -66 -38 0
v -66 -37 0
v -65 -37 0
v -66 -38 0
v -67 -38 0
v -67 -37 0
v -66 -37 0
v -67 -38 0
v -68 -38 0
v -68 -37 0
v -67 -37 0
v -69 -38 0
v -70 -38 0
v -70 -37 0
v -69 -37 0
v -70 -38 0
v -71 -38 0
v -71 -37 0
v -70 -37 0
v -71 -38 0
v -72 -38 0
v -72 -37 0
v -71 -37 0
v -72 -38 0
v -73 -38 0
v -73 -37 0
v -72 -37 0
v -73 -38 0
v -74 -38 0
v -74 -37 0
v -73 -37 0
v -74 -38 0
v -75 -38 0
v -75 -37 0
v -74 -37 0
v -75 -38 0
v -76 -38 0
v -76 -37 0
v -75 -37 0
v -78 -38 0
v -79 -38 0
v -79 -37 0
v -78 -37 0
v -80 -38 0
v -81 -38 0
v -81 -37 0
v -80 -37 0
v -81 -38 0
v -82 -38 0
v -82 -37 0
v -81 -37 0
v -82 -38 0
v -83 -38 0
v -83 -37 0
v -82 -37 0
v -84 -38 0
v -85 -38 0
v -85 -37 0
v -84 -37 0
v -86 -38 0
v -87 -38 0
v -87 -37 0
v -86 -37 0
v -87 -38 0
v -88 -38 0
v -88 -37 0
v -87 -37 0
v -88 -38 0
v -89 -38 0
v -89 -37 0
v -88 -37 0
v -18 -42 0
v -19 -42 0
v -19 -41 0
v -18 -41 0
v -20 -42 0
v -21 -42 0
v -21 -41 0
v -20 -41 0
v -21 -42 0
v -22 -42 0
v -22 -41 0
v -21 -41 0
v -22 -42 0
v -23 -42 0
v -23 -41 0
v -22 -41 0
v -23 -42 0
v -24 -42 0
v -24 -41 0
v -23 -41 0
v -24 -42 0
v -25 -42 0
v -25 -41 0
v -24 -41 0
v -25 -42 0
v -26 -42 0
v -26 -41 0
v -25 -41 0
v -26 -42 0
v -27 -42 0
v -27 -41 0
v -26 -41 0
v -27 -42 0
v -28 -42 0
v -28 -41 0
v -27 -41 0
v -28 -42 0
v -29 -42 0
v -29 -41 0
v -28 -41 0
v -29 -42 0
v -30 -42 0
v -30 -41 0
v -29 -41 0
v -31 -42 0
v -32 -42 0
v -32 -41 0
v -31 -41 0

# Texture cooridinates (Count = 6)
vt 0 0
vt 0.3333333 0
vt 0.3333333 1
vt 0 1
vt 0.6666667 0
vt 0.6666667 1

# Normal
vn 0 0 -1

# Mesh description
g OpenLevel1_mesh_0005

# Faces
f 1/1/1 2/2/1 3/3/1 4/4/1
f 5/2/1 6/5/1 7/6/1 8/3/1
f 9/1/1 10/2/1 11/3/1 12/4/1
f 13/2/1 14/5/1 15/6/1 16/3/1
f 17/1/1 18/2/1 19/3/1 20/4/1
f 21/1/1 22/2/1 23/3/1 24/4/1
f 25/1/1 26/2/1 27/3/1 28/4/1
f 29/1/1 30/2/1 31/3/1 32/4/1
f 33/2/1 34/5/1 35/6/1 36/3/1
f 37/2/1 38/5/1 39/6/1 40/3/1
f 41/1/1 42/2/1 43/3/1 44/4/1
f 45/2/1 46/5/1 47/6/1 48/3/1
f 49/2/1 50/5/1 51/6/1 52/3/1
f 53/1/1 54/2/1 55/3/1 56/4/1
f 57/1/1 58/2/1 59/3/1 60/4/1
f 61/1/1 62/2/1 63/3/1 64/4/1
f 65/1/1 66/2/1 67/3/1 68/4/1
f 69/2/1 70/5/1 71/6/1 72/3/1
f 73/2/1 74/5/1 75/6/1 76/3/1
f 77/2/1 78/5/1 79/6/1 80/3/1
f 81/1/1 82/2/1 83/3/1 84/4/1
f 85/2/1 86/5/1 87/6/1 88/3/1
f 89/2/1 90/5/1 91/6/1 92/3/1
f 93/1/1 94/2/1 95/3/1 96/4/1
f 97/1/1 98/2/1 99/3/1 100/4/1
f 101/1/1 102/2/1 103/3/1 104/4/1
f 105/1/1 106/2/1 107/3/1 108/4/1
f 109/1/1 110/2/1 111/3/1 112/4/1
f 113/2/1 114/5/1 115/6/1 116/3/1
f 117/1/1 118/2/1 119/3/1 120/4/1
f 121/1/1 122/2/1 123/3/1 124/4/1
f 125/2/1 126/5/1 127/6/1 128/3/1
f 129/2/1 130/5/1 131/6/1 132/3/1
f 133/1/1 134/2/1 135/3/1 136/4/1
f 137/2/1 138/5/1 139/6/1 140/3/1
f 141/2/1 142/5/1 143/6/1 144/3/1
f 145/1/1 146/2/1 147/3/1 148/4/1
f 149/2/1 150/5/1 151/6/1 152/3/1
f 153/2/1 154/5/1 155/6/1 156/3/1
f 157/1/1 158/2/1 159/3/1 160/4/1
f 161/1/1 162/2/1 163/3/1 164/4/1
f 165/2/1 166/5/1 167/6/1 168/3/1
f 169/1/1 170/2/1 171/3/1 172/4/1
f 173/2/1 174/5/1 175/6/1 176/3/1
f 177/1/1 178/2/1 179/3/1 180/4/1
f 181/1/1 182/2/1 183/3/1 184/4/1
f 185/1/1 186/2/1 187/3/1 188/4/1
f 189/1/1 190/2/1 191/3/1 192/4/1
f 193/1/1 194/2/1 195/3/1 196/4/1
f 197/1/1 198/2/1 199/3/1 200/4/1
f 201/1/1 202/2/1 203/3/1 204/4/1
f 205/2/1 206/5/1 207/6/1 208/3/1
f 209/1/1 210/2/1 211/3/1 212/4/1
f 213/2/1 214/5/1 215/6/1 216/3/1
f 217/1/1 218/2/1 219/3/1 220/4/1
f 221/1/1 222/2/1 223/3/1 224/4/1
f 225/1/1 226/2/1 227/3/1 228/4/1
f 229/2/1 230/5/1 231/6/1 232/3/1
f 233/2/1 234/5/1 235/6/1 236/3/1
f 237/1/1 238/2/1 239/3/1 240/4/1
f 241/1/1 242/2/1 243/3/1 244/4/1
f 245/1/1 246/2/1 247/3/1 248/4/1
f 249/1/1 250/2/1 251/3/1 252/4/1
f 253/1/1 254/2/1 255/3/1 256/4/1
f 257/2/1 258/5/1 259/6/1 260/3/1
f 261/2/1 262/5/1 263/6/1 264/3/1
f 265/2/1 266/5/1 267/6/1 268/3/1
f 269/2/1 270/5/1 271/6/1 272/3/1
f 273/1/1 274/2/1 275/3/1 276/4/1
f 277/1/1 278/2/1 279/3/1 280/4/1
f 281/2/1 282/5/1 283/6/1 284/3/1
f 285/2/1 286/5/1 287/6/1 288/3/1
f 289/1/1 290/2/1 291/3/1 292/4/1
f 293/1/1 294/2/1 295/3/1 296/4/1
f 297/1/1 298/2/1 299/3/1 300/4/1
f 301/1/1 302/2/1 303/3/1 304/4/1
f 305/1/1 306/2/1 307/3/1 308/4/1
f 309/2/1 310/5/1 311/6/1 312/3/1
f 313/2/1 314/5/1 315/6/1 316/3/1
f 317/2/1 318/5/1 319/6/1 320/3/1
f 321/1/1 322/2/1 323/3/1 324/4/1
f 325/2/1 326/5/1 327/6/1 328/3/1
f 329/2/1 330/5/1 331/6/1 332/3/1
f 333/1/1 334/2/1 335/3/1 336/4/1
f 337/1/1 338/2/1 339/3/1 340/4/1
f 341/1/1 342/2/1 343/3/1 344/4/1
f 345/2/1 346/5/1 347/6/1 348/3/1
f 349/2/1 350/5/1 351/6/1 352/3/1
f 353/1/1 354/2/1 355/3/1 356/4/1
f 357/1/1 358/2/1 359/3/1 360/4/1
f 361/1/1 362/2/1 363/3/1 364/4/1
f 365/2/1 366/5/1 367/6/1 368/3/1
f 369/2/1 370/5/1 371/6/1 372/3/1
f 373/1/1 374/2/1 375/3/1 376/4/1
f 377/2/1 378/5/1 379/6/1 380/3/1
f 381/1/1 382/2/1 383/3/1 384/4/1
f 385/2/1 386/5/1 387/6/1 388/3/1
f 389/2/1 390/5/1 391/6/1 392/3/1
f 393/1/1 394/2/1 395/3/1 396/4/1
f 397/1/1 398/2/1 399/3/1 400/4/1
f 401/2/1 402/5/1 403/6/1 404/3/1
f 405/1/1 406/2/1 407/3/1 408/4/1
f 409/1/1 410/2/1 411/3/1 412/4/1
f 413/1/1 414/2/1 415/3/1 416/4/1
f 417/1/1 418/2/1 419/3/1 420/4/1
f 421/2/1 422/5/1 423/6/1 424/3/1
f 425/2/1 426/5/1 427/6/1 428/3/1
f 429/2/1 430/5/1 431/6/1 432/3/1
f 433/2/1 434/5/1 435/6/1 436/3/1
f 437/2/1 438/5/1 439/6/1 440/3/1
f 441/2/1 442/5/1 443/6/1 444/3/1
f 445/2/1 446/5/1 447/6/1 448/3/1
f 449/2/1 450/5/1 451/6/1 452/3/1
f 453/1/1 454/2/1 455/3/1 456/4/1
f 457/2/1 458/5/1 459/6/1 460/3/1
f 461/2/1 462/5/1 463/6/1 464/3/1
f 465/2/1 466/5/1 467/6/1 468/3/1
f 469/2/1 470/5/1 471/6/1 472/3/1
f 473/1/1 474/2/1 475/3/1 476/4/1
f 477/1/1 478/2/1 479/3/1 480/4/1
f 481/2/1 482/5/1 483/6/1 484/3/1
f 485/2/1 486/5/1 487/6/1 488/3/1
f 489/2/1 490/5/1 491/6/1 492/3/1
f 493/2/1 494/5/1 495/6/1 496/3/1
f 497/1/1 498/2/1 499/3/1 500/4/1
f 501/2/1 502/5/1 503/6/1 504/3/1
f 505/1/1 506/2/1 507/3/1 508/4/1
f 509/1/1 510/2/1 511/3/1 512/4/1
f 513/2/1 514/5/1 515/6/1 516/3/1
f 517/1/1 518/2/1 519/3/1 520/4/1

