# Tiled2Unity generated file. Do not modify by hand.
# Wavefront file for 'OpenLevel1_mesh_0018.obj'

# Vertices (Count = 120)
v -75 -4 0
v -79.38 -4 0
v -79.38 -1.46 0
v -75 -1.46 0
v -83 -4 0
v -87.38 -4 0
v -87.38 -1.46 0
v -83 -1.46 0
v -63 -8 0
v -67.38 -8 0
v -67.38 -5.46 0
v -63 -5.46 0
v -69 -10 0
v -73.38 -10 0
v -73.38 -7.46 0
v -69 -7.46 0
v -8 -14 0
v -12.38 -14 0
v -12.38 -11.46 0
v -8 -11.46 0
v -94 -14 0
v -98.38 -14 0
v -98.38 -11.46 0
v -94 -11.46 0
v 0 -16 0
v -4.38 -16 0
v -4.38 -13.46 0
v 0 -13.46 0
v -22 -16 0
v -26.38 -16 0
v -26.38 -13.46 0
v -22 -13.46 0
v -29 -16 0
v -33.38 -16 0
v -33.38 -13.46 0
v -29 -13.46 0
v -54 -19 0
v -58.38 -19 0
v -58.38 -16.46 0
v -54 -16.46 0
v 0 -21 0
v -4.38 -21 0
v -4.38 -18.46 0
v 0 -18.46 0
v -43 -23 0
v -47.38 -23 0
v -47.38 -20.46 0
v -43 -20.46 0
v -91 -23 0
v -95.38 -23 0
v -95.38 -20.46 0
v -91 -20.46 0
v -69 -24 0
v -73.38 -24 0
v -73.38 -21.46 0
v -69 -21.46 0
v -9 -25 0
v -13.38 -25 0
v -13.38 -22.46 0
v -9 -22.46 0
v -21 -25 0
v -25.38 -25 0
v -25.38 -22.46 0
v -21 -22.46 0
v -22 -29 0
v -26.38 -29 0
v -26.38 -26.46 0
v -22 -26.46 0
v -50 -29 0
v -54.38 -29 0
v -54.38 -26.46 0
v -50 -26.46 0
v -56 -30 0
v -60.38 -30 0
v -60.38 -27.46 0
v -56 -27.46 0
v -83 -31 0
v -87.38 -31 0
v -87.38 -28.46 0
v -83 -28.46 0
v -43 -34 0
v -47.38 -34 0
v -47.38 -31.46 0
v -43 -31.46 0
v -74 -35 0
v -78.38 -35 0
v -78.38 -32.46 0
v -74 -32.46 0
v -57 -36 0
v -61.38 -36 0
v -61.38 -33.46 0
v -57 -33.46 0
v -3 -38 0
v -7.38 -38 0
v -7.38 -35.46 0
v -3 -35.46 0
v -36 -38 0
v -40.38 -38 0
v -40.38 -35.46 0
v -36 -35.46 0
v -80 -38 0
v -84.38 -38 0
v -84.38 -35.46 0
v -80 -35.46 0
v -89 -38 0
v -93.38 -38 0
v -93.38 -35.46 0
v -89 -35.46 0
v -14 -42 0
v -18.38 -42 0
v -18.38 -39.46 0
v -14 -39.46 0
v -23 -42 0
v -27.38 -42 0
v -27.38 -39.46 0
v -23 -39.46 0
v -35 -42 0
v -39.38 -42 0
v -39.38 -39.46 0
v -35 -39.46 0

# Texture cooridinates (Count = 20)
vt 0.1999087 0
vt 0 0
vt 0 1
vt 0.1999087 1
vt 0.3998174 0
vt 0.3998174 1
vt 0.5997261 0
vt 0.7996349 0
vt 0.7996349 1
vt 0.5997261 1
vt 0.04198996 1.362205
vt 0.04198996 -0.3622047
vt 0.1579188 -0.3622047
vt 0.1579188 1.362205
vt 0.9995436 0
vt 0.9995436 1
vt 0.9575536 -0.3622047
vt 0.9575536 1.362205
vt 0.8416249 1.362205
vt 0.8416249 -0.3622047

# Normal
vn 0 0 -1

# Mesh description
g OpenLevel1_mesh_0018

# Faces
f 1/1/1 2/2/1 3/3/1 4/4/1
f 5/1/1 6/5/1 7/6/1 8/4/1
f 9/6/1 10/4/1 11/1/1 12/5/1
f 13/7/1 14/8/1 15/9/1 16/10/1
f 17/11/1 18/12/1 19/13/1 20/14/1
f 21/2/1 22/1/1 23/4/1 24/3/1
f 25/4/1 26/6/1 27/5/1 28/1/1
f 29/1/1 30/2/1 31/3/1 32/4/1
f 33/5/1 34/7/1 35/10/1 36/6/1
f 37/2/1 38/1/1 39/4/1 40/3/1
f 41/5/1 42/1/1 43/4/1 44/6/1
f 45/7/1 46/8/1 47/9/1 48/10/1
f 49/8/1 50/7/1 51/10/1 52/9/1
f 53/5/1 54/1/1 55/4/1 56/6/1
f 57/7/1 58/5/1 59/6/1 60/10/1
f 61/8/1 62/15/1 63/16/1 64/9/1
f 65/2/1 66/1/1 67/4/1 68/3/1
f 69/8/1 70/7/1 71/10/1 72/9/1
f 73/8/1 74/15/1 75/16/1 76/9/1
f 77/7/1 78/8/1 79/9/1 80/10/1
f 81/7/1 82/8/1 83/9/1 84/10/1
f 85/17/1 86/18/1 87/19/1 88/20/1
f 89/10/1 90/6/1 91/5/1 92/7/1
f 93/2/1 94/1/1 95/4/1 96/3/1
f 97/1/1 98/2/1 99/3/1 100/4/1
f 101/1/1 102/2/1 103/3/1 104/4/1
f 105/5/1 106/1/1 107/4/1 108/6/1
f 109/15/1 110/8/1 111/9/1 112/16/1
f 113/5/1 114/7/1 115/10/1 116/6/1
f 117/2/1 118/1/1 119/4/1 120/3/1

