# Tiled2Unity generated file. Do not modify by hand.
# Wavefront file for 'Puzzle1_mesh_0005.obj'

# Vertices (Count = 88)
v -33 -11 0
v -34 -11 0
v -34 -10 0
v -33 -10 0
v -34 -11 0
v -35 -11 0
v -35 -10 0
v -34 -10 0
v -35 -11 0
v -36 -11 0
v -36 -10 0
v -35 -10 0
v -36 -11 0
v -37 -11 0
v -37 -10 0
v -36 -10 0
v -37 -11 0
v -38 -11 0
v -38 -10 0
v -37 -10 0
v -38 -11 0
v -39 -11 0
v -39 -10 0
v -38 -10 0
v -39 -11 0
v -40 -11 0
v -40 -10 0
v -39 -10 0
v -51 -17 0
v -52 -17 0
v -52 -16 0
v -51 -16 0
v -52 -17 0
v -53 -17 0
v -53 -16 0
v -52 -16 0
v -53 -17 0
v -54 -17 0
v -54 -16 0
v -53 -16 0
v -31 -23 0
v -32 -23 0
v -32 -22 0
v -31 -22 0
v -32 -23 0
v -33 -23 0
v -33 -22 0
v -32 -22 0
v -33 -23 0
v -34 -23 0
v -34 -22 0
v -33 -22 0
v -34 -23 0
v -35 -23 0
v -35 -22 0
v -34 -22 0
v -35 -23 0
v -36 -23 0
v -36 -22 0
v -35 -22 0
v -36 -23 0
v -37 -23 0
v -37 -22 0
v -36 -22 0
v -37 -23 0
v -38 -23 0
v -38 -22 0
v -37 -22 0
v -38 -23 0
v -39 -23 0
v -39 -22 0
v -38 -22 0
v -39 -23 0
v -40 -23 0
v -40 -22 0
v -39 -22 0
v -56 -27 0
v -57 -27 0
v -57 -26 0
v -56 -26 0
v -57 -27 0
v -58 -27 0
v -58 -26 0
v -57 -26 0
v -58 -27 0
v -59 -27 0
v -59 -26 0
v -58 -26 0

# Texture cooridinates (Count = 11)
vt 0.5 0.5
vt 0.5 1
vt 0.25 1
vt 0.25 0.5
vt 0.75 0
vt 0.75 0.5
vt 0.5 0
vt 0 0.5
vt 0 0
vt 0.25 0
vt 0.75 1

# Normal
vn 0 0 -1

# Mesh description
g Puzzle1_mesh_0005

# Faces
f 1/1/1 2/2/1 3/3/1 4/4/1
f 5/5/1 6/6/1 7/1/1 8/7/1
f 9/5/1 10/6/1 11/1/1 12/7/1
f 13/5/1 14/6/1 15/1/1 16/7/1
f 17/5/1 18/6/1 19/1/1 20/7/1
f 21/5/1 22/6/1 23/1/1 24/7/1
f 25/2/1 26/3/1 27/4/1 28/1/1
f 29/4/1 30/8/1 31/9/1 32/10/1
f 33/5/1 34/6/1 35/1/1 36/7/1
f 37/9/1 38/10/1 39/4/1 40/8/1
f 41/4/1 42/8/1 43/9/1 44/10/1
f 45/1/1 46/7/1 47/5/1 48/6/1
f 49/1/1 50/7/1 51/5/1 52/6/1
f 53/1/1 54/7/1 55/5/1 56/6/1
f 57/1/1 58/7/1 59/5/1 60/6/1
f 61/1/1 62/7/1 63/5/1 64/6/1
f 65/1/1 66/7/1 67/5/1 68/6/1
f 69/1/1 70/7/1 71/5/1 72/6/1
f 73/6/1 74/11/1 75/2/1 76/1/1
f 77/4/1 78/8/1 79/9/1 80/10/1
f 81/5/1 82/6/1 83/1/1 84/7/1
f 85/9/1 86/10/1 87/4/1 88/8/1

