# Tiled2Unity generated file. Do not modify by hand.
# Wavefront file for 'Puzzle1_mesh_0007.obj'

# Vertices (Count = 32)
v -33 -11 0
v -34 -11 0
v -34 -10 0
v -33 -10 0
v -39 -11 0
v -40 -11 0
v -40 -10 0
v -39 -10 0
v -51 -17 0
v -52 -17 0
v -52 -16 0
v -51 -16 0
v -52 -17 0
v -53 -17 0
v -53 -16 0
v -52 -16 0
v -53 -17 0
v -54 -17 0
v -54 -16 0
v -53 -16 0
v -56 -27 0
v -57 -27 0
v -57 -26 0
v -56 -26 0
v -57 -27 0
v -58 -27 0
v -58 -26 0
v -57 -26 0
v -58 -27 0
v -59 -27 0
v -59 -26 0
v -58 -26 0

# Texture cooridinates (Count = 11)
vt 0 0.6
vt 0 0.4
vt 0.5 0.4
vt 0.5 0.6
vt 0 0.8
vt 0.5 0.8
vt 1 0.6
vt 1 0.4
vt 1 0.8
vt 1 1
vt 0.5 1

# Normal
vn 0 0 -1

# Mesh description
g Puzzle1_mesh_0007

# Faces
f 1/1/1 2/2/1 3/3/1 4/4/1
f 5/5/1 6/1/1 7/4/1 8/6/1
f 9/7/1 10/4/1 11/3/1 12/8/1
f 13/6/1 14/9/1 15/10/1 16/11/1
f 17/3/1 18/8/1 19/7/1 20/4/1
f 21/7/1 22/4/1 23/3/1 24/8/1
f 25/6/1 26/9/1 27/10/1 28/11/1
f 29/3/1 30/8/1 31/7/1 32/4/1

