# Tiled2Unity generated file. Do not modify by hand.
# Wavefront file for 'Puzzle2_mesh_0005.obj'

# Vertices (Count = 72)
v -16 -4 0
v -17 -4 0
v -17 -3 0
v -16 -3 0
v -18 -4 0
v -19 -4 0
v -19 -3 0
v -18 -3 0
v -20 -4 0
v -21 -4 0
v -21 -3 0
v -20 -3 0
v -22 -4 0
v -23 -4 0
v -23 -3 0
v -22 -3 0
v -16 -6 0
v -17 -6 0
v -17 -5 0
v -16 -5 0
v -19 -6 0
v -20 -6 0
v -20 -5 0
v -19 -5 0
v -21 -6 0
v -22 -6 0
v -22 -5 0
v -21 -5 0
v -22 -6 0
v -23 -6 0
v -23 -5 0
v -22 -5 0
v -16 -7 0
v -17 -7 0
v -17 -6 0
v -16 -6 0
v -18 -7 0
v -19 -7 0
v -19 -6 0
v -18 -6 0
v -21 -7 0
v -22 -7 0
v -22 -6 0
v -21 -6 0
v -22 -7 0
v -23 -7 0
v -23 -6 0
v -22 -6 0
v -17 -9 0
v -18 -9 0
v -18 -8 0
v -17 -8 0
v -19 -9 0
v -20 -9 0
v -20 -8 0
v -19 -8 0
v -6 -11 0
v -7 -11 0
v -7 -10 0
v -6 -10 0
v -25 -11 0
v -26 -11 0
v -26 -10 0
v -25 -10 0
v -44 -11 0
v -45 -11 0
v -45 -10 0
v -44 -10 0
v -13 -12 0
v -14 -12 0
v -14 -11 0
v -13 -11 0

# Texture cooridinates (Count = 16)
vt 1 0.6
vt 0.5 0.6
vt 0.5 0.4
vt 1 0.4
vt 0.5 0.8
vt 1 0.8
vt 1 1
vt 0.5 1
vt 0.5 0.2
vt 1 0.2
vt 0.5 0
vt 1 0
vt 0 0
vt 0 0.2
vt 0 0.6
vt 0 0.8

# Normal
vn 0 0 -1

# Mesh description
g Puzzle2_mesh_0005

# Faces
f 1/1/1 2/2/1 3/3/1 4/4/1
f 5/5/1 6/6/1 7/7/1 8/8/1
f 9/2/1 10/1/1 11/4/1 12/3/1
f 13/2/1 14/1/1 15/6/1 16/5/1
f 17/3/1 18/9/1 19/10/1 20/4/1
f 21/9/1 22/10/1 23/4/1 24/3/1
f 25/3/1 26/9/1 27/10/1 28/4/1
f 29/9/1 30/10/1 31/4/1 32/3/1
f 33/4/1 34/3/1 35/9/1 36/10/1
f 37/4/1 38/3/1 39/9/1 40/10/1
f 41/4/1 42/3/1 43/9/1 44/10/1
f 45/10/1 46/4/1 47/3/1 48/9/1
f 49/11/1 50/12/1 51/10/1 52/9/1
f 53/13/1 54/11/1 55/9/1 56/14/1
f 57/15/1 58/2/1 59/5/1 60/16/1
f 61/2/1 62/5/1 63/16/1 64/15/1
f 65/15/1 66/2/1 67/5/1 68/16/1
f 69/16/1 70/15/1 71/2/1 72/5/1

