# Tiled2Unity generated file. Do not modify by hand.
# Wavefront file for 'Puzzle2_mesh_0003.obj'

<<<<<<< HEAD
# Vertices (Count = 12)
v -34 -10 0
v -38.38 -10 0
v -38.38 -7.46 0
v -34 -7.46 0
v -8 -16 0
v -12.38 -16 0
v -12.38 -13.46 0
v -8 -13.46 0
v -10 -34 0
v -14.38 -34 0
v -14.38 -31.46 0
v -10 -31.46 0

# Texture cooridinates (Count = 8)
vt 0 0
vt 0.1999087 0
vt 0.1999087 1
vt 0 1
vt 0.7996349 0
vt 0.9995436 0
vt 0.9995436 1
vt 0.7996349 1
=======
# Vertices (Count = 16)
v -6 -11 0
v -7 -11 0
v -7 -10 0
v -6 -10 0
v -25 -11 0
v -26 -11 0
v -26 -10 0
v -25 -10 0
v -44 -11 0
v -45 -11 0
v -45 -10 0
v -44 -10 0
v -13 -12 0
v -14 -12 0
v -14 -11 0
v -13 -11 0

# Texture cooridinates (Count = 4)
vt 0 0.6
vt 0.5 0.6
vt 0.5 0.8
vt 0 0.8
>>>>>>> 9ce1f488284a6b5f674b5415fae1459d86403688

# Normal
vn 0 0 -1

# Mesh description
g Puzzle2_mesh_0003

# Faces
f 1/1/1 2/2/1 3/3/1 4/4/1
<<<<<<< HEAD
f 5/5/1 6/6/1 7/7/1 8/8/1
f 9/1/1 10/2/1 11/3/1 12/4/1
=======
f 5/2/1 6/3/1 7/4/1 8/1/1
f 9/1/1 10/2/1 11/3/1 12/4/1
f 13/4/1 14/1/1 15/2/1 16/3/1
>>>>>>> 9ce1f488284a6b5f674b5415fae1459d86403688

